<svg width="257" height="39" viewBox="0 0 257 39" fill="none" xmlns="http://www.w3.org/2000/svg">
<path d="M99.9599 31H86.9999V25.96H90.2399V10.84H86.9999V5.8H99.9599V10.84H96.7199V25.96H99.9599V31ZM115.437 31H108.957V10.84H101.397V5.8H122.997V10.84H115.437V31ZM133.081 12.64V31H126.781V17.5H124.081V12.64H133.081ZM126.781 5.44H133.081V10.48H126.781V5.44ZM147.313 16.78C146.041 16.78 144.601 17.02 142.993 17.5V31H136.693V11.92H142.273L142.633 13.72C143.761 12.976 144.913 12.436 146.089 12.1C147.289 11.74 148.297 11.56 149.113 11.56H150.733C152.365 11.56 153.673 12.052 154.657 13.036C155.641 14.02 156.133 15.328 156.133 16.96V31H149.833V18.04C149.833 17.68 149.713 17.38 149.473 17.14C149.233 16.9 148.933 16.78 148.573 16.78H147.313ZM174.848 10.66C174.152 10.612 173.228 10.54 172.076 10.444C170.924 10.348 169.928 10.3 169.088 10.3C168.248 10.3 167.708 10.42 167.468 10.66C167.228 10.9 167.108 11.2 167.108 11.56V13.36H173.048V18.22H167.108V31H160.808V18.22H158.288V13.36H160.808V10.84C160.808 9.208 161.3 7.9 162.284 6.916C163.268 5.932 164.576 5.44 166.208 5.44C167.672 5.44 169.22 5.488 170.852 5.584C172.484 5.68 173.816 5.752 174.848 5.8V10.66ZM183.495 12.64V31H177.195V17.5H174.495V12.64H183.495ZM177.195 5.44H183.495V10.48H177.195V5.44ZM197.727 16.78C196.455 16.78 195.015 17.02 193.407 17.5V31H187.107V11.92H192.687L193.047 13.72C194.175 12.976 195.327 12.436 196.503 12.1C197.703 11.74 198.711 11.56 199.527 11.56H201.147C202.779 11.56 204.087 12.052 205.071 13.036C206.055 14.02 206.547 15.328 206.547 16.96V31H200.247V18.04C200.247 17.68 200.127 17.38 199.887 17.14C199.647 16.9 199.347 16.78 198.987 16.78H197.727ZM244.198 16.06C243.238 16.06 242.758 16.54 242.758 17.5V19.48H248.878V17.5C248.878 16.54 248.398 16.06 247.438 16.06H244.198ZM254.458 30.64C249.826 31.12 245.626 31.36 241.858 31.36C240.226 31.36 238.918 30.868 237.934 29.884C236.95 28.9 236.458 27.592 236.458 25.96V17.32C236.458 15.52 236.962 14.116 237.97 13.108C239.002 12.076 240.418 11.56 242.218 11.56H249.418C251.218 11.56 252.622 12.076 253.63 13.108C254.662 14.116 255.178 15.52 255.178 17.32V23.98H242.758V25.42C242.758 25.78 242.878 26.08 243.118 26.32C243.358 26.56 243.658 26.68 244.018 26.68C246.394 26.68 249.874 26.5 254.458 26.14V30.64Z" fill="white"/>
<path d="M217.702 12.64V31H211.402V17.5H208.702V12.64H217.702ZM211.402 5.44H217.702V10.48H211.402V5.44ZM234.634 31C232.306 31.24 230.026 31.36 227.794 31.36C226.162 31.36 224.854 30.868 223.87 29.884C222.886 28.9 222.394 27.592 222.394 25.96V16.78H220.234V11.92H222.394L223.114 7.6H228.694V11.92H233.194V16.78H228.694V25.06C228.694 25.42 228.814 25.72 229.054 25.96C229.294 26.2 229.594 26.32 229.954 26.32H234.634V31Z" fill="url(#paint0_linear_827_8966)"/>
<g clip-path="url(#clip0_827_8966)">
<path d="M60.7197 11.63H60.7297L65.3997 16.31L60.7197 11.63Z" fill="url(#paint1_linear_827_8966)"/>
<path d="M71.9196 19.16C71.9196 18.85 71.8196 18.54 71.6396 18.29C71.5896 18.22 71.5296 18.15 71.4696 18.08L57.3996 4.01C54.8196 1.42 51.3796 0 47.7296 0C44.0696 0 40.6396 1.42 38.0496 4.01C37.7696 4.29 37.5996 4.68 37.5996 5.09C37.5996 5.49 37.7596 5.88 38.0496 6.17L39.1996 7.32L51.0496 19.17L41.8396 28.38L38.0496 32.17C37.7696 32.45 37.5996 32.84 37.5996 33.25C37.5996 33.32 37.6096 33.38 37.6196 33.45C37.6596 33.78 37.8096 34.09 38.0496 34.33C38.0596 34.34 38.0796 34.35 38.0896 34.37C38.4296 34.71 38.7796 35.02 39.1496 35.32C39.1596 35.33 39.1696 35.34 39.1796 35.35C39.4696 35.58 39.7796 35.81 40.0796 36.01C40.0896 36.02 40.1096 36.03 40.1196 36.04C40.2196 36.11 40.3196 36.17 40.4296 36.23C40.6796 36.39 40.9296 36.54 41.1796 36.68C41.3096 36.75 41.4296 36.81 41.5596 36.88C41.8096 37.01 42.0696 37.13 42.3296 37.24C42.4396 37.29 42.5596 37.34 42.6696 37.39C43.0396 37.54 43.4096 37.67 43.7796 37.78C43.8396 37.8 43.9096 37.81 43.9696 37.83C44.2896 37.92 44.6096 38 44.9396 38.07C45.0696 38.1 45.1996 38.12 45.3296 38.14C45.5996 38.19 45.8796 38.23 46.1596 38.26C46.2896 38.27 46.4096 38.29 46.5396 38.3C46.9196 38.33 47.2896 38.35 47.6696 38.35C47.6896 38.35 47.6996 38.35 47.7196 38.35C49.5396 38.35 51.3596 37.98 53.0596 37.26C54.6396 36.59 56.1096 35.63 57.3996 34.35L60.4096 31.34L62.8796 28.87L70.4096 21.34L71.4896 20.26C71.6996 20.05 71.8496 19.78 71.9096 19.48C71.9096 19.36 71.9196 19.26 71.9196 19.16ZM55.2496 32.16C55.2196 32.19 55.1896 32.21 55.1696 32.24C54.9696 32.44 54.7596 32.63 54.5496 32.81C54.4596 32.89 54.3596 32.95 54.2696 33.03C54.1196 33.15 53.9596 33.27 53.7996 33.38C53.6896 33.46 53.5796 33.52 53.4696 33.59C53.3196 33.69 53.1696 33.78 53.0096 33.87C52.8896 33.94 52.7696 34 52.6496 34.06C52.4996 34.14 52.3396 34.22 52.1896 34.29C52.0696 34.35 51.9396 34.4 51.8196 34.45C51.6596 34.51 51.5096 34.58 51.3496 34.64C51.2196 34.69 51.0996 34.73 50.9696 34.77C50.8096 34.82 50.6496 34.87 50.4796 34.91C50.3496 34.94 50.2196 34.98 50.0896 35C49.9196 35.04 49.7596 35.07 49.5896 35.1C49.4596 35.12 49.3296 35.14 49.1996 35.16C49.0296 35.18 48.8596 35.2 48.6896 35.22C48.5596 35.23 48.4396 35.24 48.3096 35.25C48.1296 35.26 47.9596 35.26 47.7796 35.26C47.6596 35.26 47.5396 35.26 47.4096 35.26C47.2296 35.25 47.0396 35.24 46.8596 35.22C46.7496 35.21 46.6296 35.2 46.5196 35.19C46.3196 35.17 46.1296 35.13 45.9296 35.1C45.8296 35.08 45.7296 35.07 45.6296 35.05C45.3996 35 45.1696 34.94 44.9396 34.88C44.8796 34.86 44.8096 34.85 44.7496 34.83C44.4596 34.74 44.1696 34.65 43.8796 34.54C43.8496 34.53 43.8196 34.51 43.7896 34.5C43.5396 34.4 43.2896 34.29 43.0396 34.17C42.9496 34.13 42.8596 34.07 42.7696 34.02C42.5896 33.93 42.4196 33.83 42.2396 33.73C41.9596 33.56 41.6896 33.38 41.4196 33.18C41.3996 33.17 41.3796 33.15 41.3596 33.14L45.4796 29.02L53.2096 21.29L59.6596 27.74L56.4396 30.96L55.2496 32.16ZM47.7296 3.04C50.5696 3.04 53.2496 4.15 55.2596 6.16L68.2596 19.16L61.8096 25.61L41.3496 5.16C43.1796 3.79 45.3896 3.04 47.7296 3.04Z" fill="url(#paint2_linear_827_8966)"/>
<path d="M11.1995 11.63L6.51953 16.31L11.1995 11.63Z" fill="url(#paint3_linear_827_8966)"/>
<path d="M34.29 32.94C34.23 32.65 34.09 32.38 33.87 32.16L29.85 28.14L20.87 19.16L32.73 7.31L33.88 6.16C34.16 5.87 34.33 5.49 34.33 5.08C34.33 4.68 34.17 4.29 33.88 4C31.29 1.42 27.86 0 24.2 0C20.54 0 17.11 1.42 14.52 4.01L0.45 18.08C0.39 18.14 0.34 18.2 0.29 18.27C0.1 18.53 0 18.84 0 19.16C0 19.56 0.16 19.95 0.45 20.24L1.53 21.32L9.06 28.85L11.53 31.32L14.54 34.33C15.82 35.61 17.3 36.58 18.88 37.24C20.58 37.96 22.4 38.33 24.22 38.33C24.24 38.33 24.25 38.33 24.27 38.33C24.65 38.33 25.02 38.31 25.4 38.28C25.53 38.27 25.65 38.25 25.78 38.24C26.06 38.21 26.33 38.17 26.61 38.12C26.74 38.1 26.87 38.08 27 38.05C27.33 37.98 27.65 37.9 27.97 37.81C28.03 37.79 28.1 37.78 28.16 37.76C28.54 37.65 28.91 37.52 29.27 37.37C29.39 37.32 29.5 37.27 29.61 37.22C29.87 37.11 30.13 36.99 30.38 36.86C30.51 36.8 30.64 36.73 30.76 36.66C31.02 36.52 31.27 36.37 31.51 36.21C31.61 36.15 31.72 36.09 31.82 36.02C31.83 36.01 31.85 36 31.86 35.99C32.17 35.78 32.47 35.56 32.76 35.33C32.77 35.32 32.78 35.31 32.79 35.3C33.15 35.01 33.51 34.69 33.85 34.36C33.87 34.34 33.88 34.33 33.9 34.32C34.1 34.12 34.23 33.87 34.3 33.6C34.33 33.48 34.35 33.37 34.35 33.24C34.32 33.14 34.31 33.04 34.29 32.94ZM28.9 34.18C28.65 34.3 28.4 34.41 28.15 34.51C28.12 34.52 28.09 34.54 28.06 34.55C27.77 34.66 27.48 34.76 27.19 34.84C27.13 34.86 27.06 34.87 27 34.89C26.77 34.95 26.54 35.01 26.31 35.06C26.21 35.08 26.11 35.09 26.01 35.11C25.81 35.14 25.62 35.18 25.42 35.2C25.31 35.21 25.19 35.22 25.08 35.23C24.9 35.25 24.71 35.26 24.53 35.26C24.41 35.26 24.29 35.26 24.16 35.26C23.98 35.26 23.81 35.26 23.63 35.25C23.5 35.24 23.38 35.23 23.25 35.22C23.08 35.2 22.91 35.19 22.74 35.16C22.61 35.14 22.48 35.12 22.35 35.1C22.18 35.07 22.02 35.04 21.85 35C21.72 34.97 21.59 34.94 21.46 34.91C21.3 34.87 21.13 34.82 20.97 34.77C20.84 34.73 20.71 34.69 20.59 34.64C20.43 34.58 20.27 34.52 20.12 34.45C19.99 34.4 19.87 34.35 19.75 34.29C19.59 34.22 19.44 34.14 19.29 34.06C19.17 34 19.05 33.94 18.93 33.87C18.78 33.78 18.62 33.68 18.47 33.59C18.36 33.52 18.25 33.45 18.14 33.38C17.98 33.27 17.83 33.15 17.67 33.03C17.58 32.96 17.48 32.89 17.39 32.81C17.18 32.63 16.97 32.44 16.77 32.24C16.74 32.21 16.71 32.19 16.69 32.16L15.51 30.98L12.29 27.76L18.74 21.31L26.98 29.55L30.59 33.16C30.57 33.18 30.55 33.19 30.53 33.2C30.27 33.4 29.99 33.58 29.72 33.74C29.55 33.84 29.37 33.94 29.19 34.03C29.08 34.09 28.99 34.14 28.9 34.18ZM16.67 6.16C18.68 4.15 21.35 3.04 24.2 3.04C26.53 3.04 28.75 3.78 30.58 5.16L10.12 25.61L3.67 19.16L16.67 6.16Z" fill="url(#paint4_linear_827_8966)"/>
</g>
<defs>
<linearGradient id="paint0_linear_827_8966" x1="102.879" y1="7.67812" x2="126.994" y2="76.7784" gradientUnits="userSpaceOnUse">
<stop stop-color="#3663D8"/>
<stop offset="0.56" stop-color="#77BEFF"/>
<stop offset="0.99" stop-color="#00D1FF"/>
</linearGradient>
<linearGradient id="paint1_linear_827_8966" x1="61.1839" y1="12.4982" x2="65.6409" y2="15.187" gradientUnits="userSpaceOnUse">
<stop stop-color="#3663D8"/>
<stop offset="0.56" stop-color="#77BEFF"/>
<stop offset="0.99" stop-color="#00D1FF"/>
</linearGradient>
<linearGradient id="paint2_linear_827_8966" x1="41.0034" y1="7.11405" x2="75.5226" y2="25.75" gradientUnits="userSpaceOnUse">
<stop stop-color="#3663D8"/>
<stop offset="0.56" stop-color="#77BEFF"/>
<stop offset="0.99" stop-color="#00D1FF"/>
</linearGradient>
<linearGradient id="paint3_linear_827_8966" x1="6.98368" y1="12.4982" x2="11.4408" y2="15.187" gradientUnits="userSpaceOnUse">
<stop stop-color="#3663D8"/>
<stop offset="0.56" stop-color="#77BEFF"/>
<stop offset="0.99" stop-color="#00D1FF"/>
</linearGradient>
<linearGradient id="paint4_linear_827_8966" x1="3.40673" y1="7.11034" x2="37.9344" y2="25.7769" gradientUnits="userSpaceOnUse">
<stop stop-color="#3663D8"/>
<stop offset="0.56" stop-color="#77BEFF"/>
<stop offset="0.99" stop-color="#00D1FF"/>
</linearGradient>
<clipPath id="clip0_827_8966">
<rect width="71.92" height="38.31" fill="white"/>
</clipPath>
</defs>
</svg>
