<svg width="23" height="17" viewBox="0 0 23 17" fill="none" xmlns="http://www.w3.org/2000/svg">
<g clip-path="url(#clip0_659_86)">
<path d="M1.27254 0H20.896C21.2315 0.00332006 21.5521 0.138662 21.7884 0.376709C22.0248 0.614755 22.1579 0.936337 22.1588 1.27179V14.7582C22.1607 15.0155 22.0839 15.2673 21.9387 15.4798C21.9126 15.5479 21.872 15.6094 21.8196 15.6602C21.7845 15.6938 21.7443 15.7218 21.7006 15.7432C21.473 15.9352 21.1848 16.0406 20.887 16.0408H1.27254C0.938649 16.0375 0.619366 15.9034 0.38326 15.6673C0.147153 15.4312 0.0130554 15.1119 0.00976562 14.7781V1.27179C0.0106982 0.936337 0.143755 0.614755 0.380113 0.376709C0.616471 0.138662 0.937098 0.00332006 1.27254 0ZM1.21842 14.2224L7.85338 7.32769L1.21842 1.72098V14.2224ZM8.85278 8.18818L1.76322 15.0541H20.344L13.5701 8.18818L11.5858 9.84963C11.4983 9.92225 11.3883 9.962 11.2746 9.962C11.1609 9.962 11.0509 9.92225 10.9634 9.84963L8.85278 8.18818ZM14.5533 7.31506L20.9501 14.2784V1.65964L14.5533 7.31506ZM1.84259 0.975943L11.2557 8.6049L20.2538 0.975943H1.84259Z" fill="#D4D6D7"/>
</g>
<defs>
<clipPath id="clip0_659_86">
<rect width="22.1671" height="16.03" fill="white"/>
</clipPath>
</defs>
</svg>
