<svg width="24" height="24" viewBox="0 0 24 24" fill="none" xmlns="http://www.w3.org/2000/svg">
<g clip-path="url(#clip0_659_71)">
<path d="M18.9677 14.8671C18.4764 14.3555 17.8837 14.082 17.2556 14.082C16.6326 14.082 16.0348 14.3505 15.5232 14.8621L13.9226 16.4577C13.7909 16.3868 13.6592 16.3209 13.5326 16.2551C13.3502 16.1639 13.178 16.0778 13.0311 15.9866C11.5317 15.0343 10.1692 13.7933 8.86229 12.1876C8.22912 11.3872 7.80363 10.7135 7.49464 10.0297C7.91 9.64982 8.29497 9.25472 8.6698 8.87482C8.81163 8.73299 8.95346 8.5861 9.09529 8.44427C10.159 7.38054 10.159 6.00276 9.09529 4.93903L7.71245 3.55619C7.55542 3.39916 7.39333 3.23707 7.24137 3.07498C6.93745 2.76093 6.61833 2.43674 6.28908 2.13282C5.79774 1.64655 5.21016 1.38821 4.59218 1.38821C3.97421 1.38821 3.3765 1.64655 2.86996 2.13282C2.8649 2.13789 2.8649 2.13789 2.85983 2.14295L1.13761 3.88037C0.489239 4.52874 0.119467 5.31894 0.0384214 6.23577C-0.0831474 7.71485 0.352474 9.09263 0.686788 9.99427C1.50738 12.2078 2.7332 14.2593 4.56179 16.4577C6.78042 19.1069 9.44987 21.1989 12.4992 22.6729C13.6643 23.225 15.2193 23.8784 16.9567 23.9899C17.0631 23.9949 17.1746 24 17.2759 24C18.446 24 19.4286 23.5796 20.1986 22.7438C20.2036 22.7337 20.2138 22.7286 20.2188 22.7185C20.4822 22.3993 20.7862 22.1106 21.1053 21.8016C21.3231 21.594 21.546 21.3761 21.7638 21.1482C22.2652 20.6265 22.5286 20.0186 22.5286 19.3956C22.5286 18.7675 22.2602 18.1647 21.7486 17.6582L18.9677 14.8671ZM20.7811 20.201C20.776 20.201 20.776 20.206 20.7811 20.201C20.5835 20.4137 20.3809 20.6062 20.1631 20.819C19.8339 21.133 19.4996 21.4623 19.1855 21.832C18.6739 22.3791 18.0711 22.6374 17.2809 22.6374C17.2049 22.6374 17.1239 22.6374 17.0479 22.6324C15.5435 22.5361 14.1455 21.9485 13.0969 21.4471C10.2299 20.0591 7.71245 18.0887 5.62045 15.5915C3.89316 13.5096 2.73826 11.5848 1.97339 9.51812C1.50231 8.25685 1.33009 7.27417 1.40607 6.34721C1.45672 5.75456 1.68467 5.26322 2.10509 4.84279L3.83238 3.1155C4.08058 2.8825 4.34398 2.75586 4.60232 2.75586C4.92143 2.75586 5.17977 2.94835 5.34186 3.11044C5.34692 3.1155 5.35199 3.12057 5.35705 3.12563C5.66604 3.41436 5.95983 3.71322 6.26882 4.03233C6.42585 4.19443 6.58794 4.35652 6.75003 4.52367L8.13287 5.90652C8.6698 6.44345 8.6698 6.93985 8.13287 7.47678C7.98598 7.62368 7.84415 7.77057 7.69725 7.9124C7.27176 8.34802 6.86653 8.75325 6.42585 9.14835C6.41572 9.15848 6.40559 9.16355 6.40052 9.17368C5.9649 9.6093 6.04594 10.0348 6.13712 10.3235C6.14219 10.3387 6.14725 10.3539 6.15232 10.3691C6.51196 11.2403 7.01849 12.0609 7.78843 13.0386L7.7935 13.0436C9.19154 14.7658 10.6656 16.1082 12.2915 17.1364C12.4992 17.2681 12.712 17.3745 12.9146 17.4758C13.0969 17.567 13.2692 17.6531 13.416 17.7443C13.4363 17.7544 13.4566 17.7696 13.4768 17.7797C13.6491 17.8658 13.8111 17.9064 13.9783 17.9064C14.3987 17.9064 14.6621 17.643 14.7482 17.5569L16.4806 15.8245C16.6528 15.6523 16.9263 15.4446 17.2455 15.4446C17.5595 15.4446 17.8179 15.6421 17.9749 15.8144C17.9799 15.8194 17.9799 15.8194 17.985 15.8245L20.776 18.6155C21.2978 19.1322 21.2978 19.664 20.7811 20.201Z" fill="#D4D6D7"/>
<path d="M12.9711 5.70896C14.2982 5.93184 15.5038 6.55994 16.4662 7.52236C17.4286 8.48478 18.0516 9.69034 18.2796 11.0175C18.3353 11.3518 18.624 11.5848 18.9533 11.5848C18.9938 11.5848 19.0293 11.5797 19.0698 11.5747C19.4446 11.5139 19.6928 11.1593 19.632 10.7845C19.3585 9.17873 18.5987 7.71484 17.4387 6.55488C16.2788 5.39491 14.8149 4.6351 13.2092 4.36157C12.8343 4.30079 12.4848 4.54899 12.419 4.91876C12.3531 5.28853 12.5962 5.64817 12.9711 5.70896Z" fill="#D4D6D7"/>
<path d="M23.9723 10.5869C23.5215 7.94278 22.2754 5.53674 20.3607 3.62203C18.446 1.70732 16.04 0.461243 13.3958 0.0104253C13.0261 -0.0554245 12.6766 0.197844 12.6107 0.567615C12.5499 0.942452 12.7981 1.29196 13.173 1.35781C15.5334 1.75798 17.6862 2.87742 19.3983 4.58445C21.1104 6.29654 22.2248 8.44932 22.6249 10.8098C22.6807 11.1441 22.9694 11.3771 23.2986 11.3771C23.3392 11.3771 23.3746 11.372 23.4151 11.367C23.7849 11.3113 24.0382 10.9567 23.9723 10.5869Z" fill="#D4D6D7"/>
</g>
<defs>
<clipPath id="clip0_659_71">
<rect width="24" height="24" fill="white"/>
</clipPath>
</defs>
</svg>
