<svg width="20" height="20" viewBox="0 0 20 20" fill="none" xmlns="http://www.w3.org/2000/svg">
<g clip-path="url(#clip0_2373_404)">
<path d="M15.8473 12.8488C14.697 12.8488 13.6712 13.397 13.0151 14.2442L7.52092 11.1753C7.64965 10.8056 7.72025 10.407 7.72025 9.99585C7.72025 9.58056 7.64965 9.18605 7.51676 8.81229L13.0068 5.74751C13.6588 6.59884 14.6887 7.15116 15.8432 7.15116C17.8116 7.15116 19.4188 5.54817 19.4188 3.57558C19.4188 1.60299 17.8158 0 15.8432 0C13.8706 0 12.2676 1.60299 12.2676 3.57558C12.2676 3.99086 12.3382 4.38953 12.4711 4.75914L6.9852 7.82392C6.33321 6.96844 5.30331 6.42027 4.14882 6.42027C2.18038 6.42027 0.573242 8.02326 0.573242 9.99585C0.573242 11.9684 2.18038 13.5714 4.15298 13.5714C5.30746 13.5714 6.33736 13.0191 6.99351 12.1636L12.4835 15.2326C12.3506 15.6063 12.2759 16.0091 12.2759 16.4244C12.2759 18.3929 13.8789 20 15.8515 20C17.8241 20 19.4271 18.397 19.4271 16.4244C19.4271 14.4518 17.8199 12.8488 15.8473 12.8488ZM15.8473 1.12542C17.2011 1.12542 18.3016 2.22591 18.3016 3.57973C18.3016 4.93355 17.2011 6.03405 15.8473 6.03405C14.4935 6.03405 13.393 4.93355 13.393 3.57973C13.393 2.22591 14.4977 1.12542 15.8473 1.12542ZM4.15298 12.4502C2.79916 12.4502 1.69866 11.3497 1.69866 9.99585C1.69866 8.64203 2.79916 7.54153 4.15298 7.54153C5.5068 7.54153 6.60729 8.64203 6.60729 9.99585C6.60729 11.3497 5.50264 12.4502 4.15298 12.4502ZM15.8473 18.8746C14.4935 18.8746 13.393 17.7741 13.393 16.4203C13.393 15.0664 14.4935 13.9659 15.8473 13.9659C17.2011 13.9659 18.3016 15.0664 18.3016 16.4203C18.3016 17.7741 17.2011 18.8746 15.8473 18.8746Z" fill="black"/>
</g>
<defs>
<clipPath id="clip0_2373_404">
<rect width="20" height="20" fill="white"/>
</clipPath>
</defs>
</svg>
