<svg viewBox="0 0 223 223" fill="none" xmlns="http://www.w3.org/2000/svg">
<g clip-path="url(#clip0_837_10161)">
<path fill-rule="evenodd" clip-rule="evenodd" d="M66.0956 32.8605C109.532 7.78373 165.069 22.6714 190.142 66.0933C215.219 109.529 200.331 165.067 156.909 190.14C113.473 215.217 57.9358 200.329 32.8629 156.907C7.7861 113.471 22.6594 57.9372 66.0956 32.8605Z" fill="black"/>
<path fill-rule="evenodd" clip-rule="evenodd" d="M77.7638 75.0375C83.9042 73.3921 91.3991 81.4854 94.5175 93.1236C97.636 104.762 95.1919 115.518 89.0515 117.164C82.9111 118.809 75.4162 110.716 72.2978 99.0774C69.1832 87.4534 71.6234 76.6828 77.7638 75.0375ZM63.123 153.773C60.6885 142.288 65.2069 135.675 75.5165 132.453L69.2746 143.201C101.384 167.703 150.214 153.9 163.193 117.975L153.301 112.299C163.84 109.935 171.049 113.421 174.694 124.566L167.535 120.469C154.656 166.882 105.03 181.71 66.6327 147.736L63.123 153.773ZM122.489 63.0534C128.629 61.4081 136.124 69.5013 139.243 81.1396C142.361 92.7778 139.903 103.538 133.777 105.18C127.65 106.821 120.141 98.7316 117.023 87.0933C113.894 75.4732 116.349 64.6987 122.489 63.0534Z" fill="white"/>
</g>
<defs>
<clipPath id="clip0_837_10161">
<rect width="181.663" height="181.663" fill="white" transform="translate(0.255859 47.2723) rotate(-15)"/>
</clipPath>
</defs>
</svg>
