<svg width="60" height="60" viewBox="0 0 60 60" fill="none" xmlns="http://www.w3.org/2000/svg">
<path d="M20.5078 0.63282C11.2969 1.21876 4.3125 3.56251 2.69531 6.63282L2.4375 7.12501V13.4063V19.6875L2.78906 20.3203C4.64063 23.6719 12.7969 26.0391 23.3906 26.2969L26.3438 26.3672V25.4297V24.4922H24.2578C14.6719 24.4922 6.04688 22.4531 4.5 19.8047L4.21875 19.3359V15.1172V10.8984L4.875 11.3203C8.01562 13.3359 13.8047 14.7188 20.8125 15.1641C29.9297 15.7266 39.7734 14.1094 44.1094 11.3203L44.7656 10.8984V14.0156V17.1328H45.6797H46.6172L46.5938 12.1406C46.5703 7.19532 46.5703 7.17188 46.2891 6.67969C45.0469 4.38282 40.9453 2.50782 34.8047 1.40626C30.4922 0.609382 25.125 0.328132 20.5078 0.63282ZM28.8047 2.46094C35.7656 2.92969 41.2734 4.26563 43.6875 6.11719C44.2734 6.56251 44.7656 7.38282 44.7656 7.87501C44.7656 10.8984 35.5547 13.4063 24.4922 13.4063C14.6016 13.4063 6.04688 11.3906 4.47656 8.69532C2.83594 5.90626 9.79687 3.11719 20.0625 2.46094C22.2656 2.32032 26.6953 2.32032 28.8047 2.46094Z" fill="url(#paint0_linear_577_7816)"/>
<path d="M23.5547 19.8516V20.7656H24.4688H25.3828V19.8516V18.9375H24.4688H23.5547V19.8516Z" fill="url(#paint1_linear_577_7816)"/>
<path d="M28.4531 19.2187L28.1719 19.5V33.6563C28.1719 44.7891 28.1953 47.8594 28.3125 48C28.3828 48.0938 31.6406 50.7187 35.5313 53.8359C40.9688 58.1953 42.6797 59.4844 42.9141 59.4844C43.1484 59.4844 44.8594 58.1719 50.2969 53.8359C54.1875 50.7187 57.4219 48.0703 57.5156 47.9297C57.6094 47.7422 57.6563 44.4141 57.6563 33.5859V19.5L57.375 19.2187C57.2344 19.0547 56.9766 18.9375 56.8359 18.9375C56.6953 18.9375 55.0078 19.5234 53.1094 20.25L49.6406 21.5625L48.3281 20.25L46.9922 18.9375H42.9141H38.8359L37.5 20.25L36.1875 21.5625L32.7188 20.25C30.8203 19.5469 29.1328 18.9375 28.9922 18.9375C28.8516 18.9375 28.5938 19.0547 28.4531 19.2187ZM47.3203 21.8906L48.4453 23.0156V24.6562V26.2969H49.3594H50.2734V24.7734V23.25L52.9688 22.2422C54.4453 21.6797 55.6875 21.2344 55.7344 21.2344C55.7813 21.2344 55.8047 27.0469 55.8047 34.1719V47.1094L49.4531 52.1719C45.9609 54.9609 43.0078 57.2344 42.9141 57.2344C42.8203 57.2344 39.8672 54.9609 36.375 52.1719L30.0234 47.1094V34.1719C30.0234 27.0703 30.0469 21.2344 30.0937 21.2344C30.1172 21.2344 31.3828 21.6797 32.8594 22.2422L35.5547 23.25V24.7734V26.2969H36.4688H37.3828V24.6562V23.0156L38.5078 21.8906L39.6328 20.7656H42.9141H46.1953L47.3203 21.8906Z" fill="url(#paint2_linear_577_7816)"/>
<path d="M35.5312 30.9141V31.8281H36.4453H37.3594V30.9141V30H36.4453H35.5312V30.9141Z" fill="url(#paint3_linear_577_7816)"/>
<path d="M39.2344 30.9141V31.8281H40.1484H41.0625V30.9141V30H40.1484H39.2344V30.9141Z" fill="url(#paint4_linear_577_7816)"/>
<path d="M44.7422 30.9141V31.8281H45.6563H46.5703V30.9141V30H45.6563H44.7422V30.9141Z" fill="url(#paint5_linear_577_7816)"/>
<path d="M48.4453 30.9141V31.8281H49.3594H50.2734V30.9141V30H49.3594H48.4453V30.9141Z" fill="url(#paint6_linear_577_7816)"/>
<path d="M35.5312 34.5938V35.5078H36.4453H37.3594V34.5938V33.6797H36.4453H35.5312V34.5938Z" fill="url(#paint7_linear_577_7816)"/>
<path d="M39.2344 34.5938V35.5078H40.1484H41.0625V34.5938V33.6797H40.1484H39.2344V34.5938Z" fill="url(#paint8_linear_577_7816)"/>
<path d="M44.7422 34.5938V35.5078H45.6563H46.5703V34.5938V33.6797H45.6563H44.7422V34.5938Z" fill="url(#paint9_linear_577_7816)"/>
<path d="M48.4453 34.5938V35.5078H49.3594H50.2734V34.5938V33.6797H49.3594H48.4453V34.5938Z" fill="url(#paint10_linear_577_7816)"/>
<path d="M35.5312 38.2969V39.2109H36.4453H37.3594V38.2969V37.3828H36.4453H35.5312V38.2969Z" fill="url(#paint11_linear_577_7816)"/>
<path d="M39.2344 38.2969V39.2109H40.1484H41.0625V38.2969V37.3828H40.1484H39.2344V38.2969Z" fill="url(#paint12_linear_577_7816)"/>
<path d="M44.7422 38.2969V39.2109H45.6563H46.5703V38.2969V37.3828H45.6563H44.7422V38.2969Z" fill="url(#paint13_linear_577_7816)"/>
<path d="M48.4453 38.2969V39.2109H49.3594H50.2734V38.2969V37.3828H49.3594H48.4453V38.2969Z" fill="url(#paint14_linear_577_7816)"/>
<path d="M35.5312 41.9765V42.8906H36.4453H37.3594V41.9765V41.0625H36.4453H35.5312V41.9765Z" fill="url(#paint15_linear_577_7816)"/>
<path d="M39.2344 41.9765V42.8906H40.1484H41.0625V41.9765V41.0625H40.1484H39.2344V41.9765Z" fill="url(#paint16_linear_577_7816)"/>
<path d="M44.7422 41.9765V42.8906H45.6563H46.5703V41.9765V41.0625H45.6563H44.7422V41.9765Z" fill="url(#paint17_linear_577_7816)"/>
<path d="M48.4453 41.9765V42.8906H49.3594H50.2734V41.9765V41.0625H49.3594H48.4453V41.9765Z" fill="url(#paint18_linear_577_7816)"/>
<path d="M39.2344 45.6563V46.5703H40.1484H41.0625V45.6563V44.7422H40.1484H39.2344V45.6563Z" fill="url(#paint19_linear_577_7816)"/>
<path d="M44.7422 45.6563V46.5703H45.6563H46.5703V45.6563V44.7422H45.6563H44.7422V45.6563Z" fill="url(#paint20_linear_577_7816)"/>
<path d="M2.36719 27.1407L2.39062 30.75L2.74219 31.3828C4.59375 34.7344 12.75 37.1016 23.3437 37.3594L26.2969 37.4297V36.4922V35.5547H24.2109C15.8906 35.5547 8.20312 34.0313 5.25 31.7813C5.01562 31.5938 4.6875 31.2188 4.5 30.961L4.17187 30.4453V27.0235V23.6016H3.23437H2.34375L2.36719 27.1407Z" fill="url(#paint21_linear_577_7816)"/>
<path d="M23.5547 30.9141V31.8281H24.4688H25.3828V30.9141V30H24.4688H23.5547V30.9141Z" fill="url(#paint22_linear_577_7816)"/>
<path d="M2.36719 38.2031L2.39062 41.8125L2.74219 42.4453C4.59375 45.7969 12.75 48.1641 23.3437 48.4219L26.2969 48.4922V47.5547V46.6172H24.2109C17.1797 46.6172 10.5469 45.5391 6.89062 43.8047C5.60156 43.1719 4.85156 42.6094 4.47656 41.9766L4.19531 41.4844V38.0859V34.6641H3.25781H2.34375L2.36719 38.2031Z" fill="url(#paint23_linear_577_7816)"/>
<path d="M23.5547 41.9765V42.8906H24.4688H25.3828V41.9765V41.0625H24.4688H23.5547V41.9765Z" fill="url(#paint24_linear_577_7816)"/>
<path d="M2.36719 49.2657L2.39062 52.875L2.74219 53.5078C5.39062 58.2657 21.2109 60.8906 34.4531 58.7578C35.1094 58.6641 35.625 58.5235 35.625 58.4531C35.625 58.4063 35.5781 57.9844 35.4844 57.5391C35.3672 56.8125 35.3438 56.7422 35.1094 56.7891C34.7109 56.8828 31.5 57.3047 30.2109 57.4453C29.5547 57.5157 27.5625 57.586 25.8281 57.6328C16.7578 57.8203 8.41406 56.3203 5.25 53.9063C5.01562 53.7188 4.6875 53.3438 4.5 53.086L4.17187 52.5703V49.1485V45.7266H3.23438H2.34375L2.36719 49.2657Z" fill="url(#paint25_linear_577_7816)"/>
<path d="M23.5547 53.0391V53.9531H24.4688H25.3828V53.0391V52.125H24.4688H23.5547V53.0391Z" fill="url(#paint26_linear_577_7816)"/>
<defs>
<linearGradient id="paint0_linear_577_7816" x1="6.81912" y1="5.30881" x2="34.6414" y2="33.9894" gradientUnits="userSpaceOnUse">
<stop offset="0.0220719" stop-color="#3663D8"/>
<stop offset="0.56" stop-color="#77BEFF"/>
<stop offset="0.99" stop-color="#00D1FF"/>
</linearGradient>
<linearGradient id="paint1_linear_577_7816" x1="23.736" y1="19.2766" x2="25.477" y2="20.3269" gradientUnits="userSpaceOnUse">
<stop offset="0.0220719" stop-color="#3663D8"/>
<stop offset="0.56" stop-color="#77BEFF"/>
<stop offset="0.99" stop-color="#00D1FF"/>
</linearGradient>
<linearGradient id="paint2_linear_577_7816" x1="31.0961" y1="26.4591" x2="63.2143" y2="40.5486" gradientUnits="userSpaceOnUse">
<stop offset="0.0220719" stop-color="#3663D8"/>
<stop offset="0.56" stop-color="#77BEFF"/>
<stop offset="0.99" stop-color="#00D1FF"/>
</linearGradient>
<linearGradient id="paint3_linear_577_7816" x1="35.7126" y1="30.3391" x2="37.4536" y2="31.3894" gradientUnits="userSpaceOnUse">
<stop offset="0.0220719" stop-color="#3663D8"/>
<stop offset="0.56" stop-color="#77BEFF"/>
<stop offset="0.99" stop-color="#00D1FF"/>
</linearGradient>
<linearGradient id="paint4_linear_577_7816" x1="39.4157" y1="30.3391" x2="41.1567" y2="31.3894" gradientUnits="userSpaceOnUse">
<stop offset="0.0220719" stop-color="#3663D8"/>
<stop offset="0.56" stop-color="#77BEFF"/>
<stop offset="0.99" stop-color="#00D1FF"/>
</linearGradient>
<linearGradient id="paint5_linear_577_7816" x1="44.9235" y1="30.3391" x2="46.6645" y2="31.3894" gradientUnits="userSpaceOnUse">
<stop offset="0.0220719" stop-color="#3663D8"/>
<stop offset="0.56" stop-color="#77BEFF"/>
<stop offset="0.99" stop-color="#00D1FF"/>
</linearGradient>
<linearGradient id="paint6_linear_577_7816" x1="48.6266" y1="30.3391" x2="50.3677" y2="31.3894" gradientUnits="userSpaceOnUse">
<stop offset="0.0220719" stop-color="#3663D8"/>
<stop offset="0.56" stop-color="#77BEFF"/>
<stop offset="0.99" stop-color="#00D1FF"/>
</linearGradient>
<linearGradient id="paint7_linear_577_7816" x1="35.7126" y1="34.0188" x2="37.4536" y2="35.0691" gradientUnits="userSpaceOnUse">
<stop offset="0.0220719" stop-color="#3663D8"/>
<stop offset="0.56" stop-color="#77BEFF"/>
<stop offset="0.99" stop-color="#00D1FF"/>
</linearGradient>
<linearGradient id="paint8_linear_577_7816" x1="39.4157" y1="34.0188" x2="41.1567" y2="35.0691" gradientUnits="userSpaceOnUse">
<stop offset="0.0220719" stop-color="#3663D8"/>
<stop offset="0.56" stop-color="#77BEFF"/>
<stop offset="0.99" stop-color="#00D1FF"/>
</linearGradient>
<linearGradient id="paint9_linear_577_7816" x1="44.9235" y1="34.0188" x2="46.6645" y2="35.0691" gradientUnits="userSpaceOnUse">
<stop offset="0.0220719" stop-color="#3663D8"/>
<stop offset="0.56" stop-color="#77BEFF"/>
<stop offset="0.99" stop-color="#00D1FF"/>
</linearGradient>
<linearGradient id="paint10_linear_577_7816" x1="48.6266" y1="34.0188" x2="50.3677" y2="35.0691" gradientUnits="userSpaceOnUse">
<stop offset="0.0220719" stop-color="#3663D8"/>
<stop offset="0.56" stop-color="#77BEFF"/>
<stop offset="0.99" stop-color="#00D1FF"/>
</linearGradient>
<linearGradient id="paint11_linear_577_7816" x1="35.7126" y1="37.7219" x2="37.4536" y2="38.7722" gradientUnits="userSpaceOnUse">
<stop offset="0.0220719" stop-color="#3663D8"/>
<stop offset="0.56" stop-color="#77BEFF"/>
<stop offset="0.99" stop-color="#00D1FF"/>
</linearGradient>
<linearGradient id="paint12_linear_577_7816" x1="39.4157" y1="37.7219" x2="41.1567" y2="38.7722" gradientUnits="userSpaceOnUse">
<stop offset="0.0220719" stop-color="#3663D8"/>
<stop offset="0.56" stop-color="#77BEFF"/>
<stop offset="0.99" stop-color="#00D1FF"/>
</linearGradient>
<linearGradient id="paint13_linear_577_7816" x1="44.9235" y1="37.7219" x2="46.6645" y2="38.7722" gradientUnits="userSpaceOnUse">
<stop offset="0.0220719" stop-color="#3663D8"/>
<stop offset="0.56" stop-color="#77BEFF"/>
<stop offset="0.99" stop-color="#00D1FF"/>
</linearGradient>
<linearGradient id="paint14_linear_577_7816" x1="48.6266" y1="37.7219" x2="50.3677" y2="38.7722" gradientUnits="userSpaceOnUse">
<stop offset="0.0220719" stop-color="#3663D8"/>
<stop offset="0.56" stop-color="#77BEFF"/>
<stop offset="0.99" stop-color="#00D1FF"/>
</linearGradient>
<linearGradient id="paint15_linear_577_7816" x1="35.7126" y1="41.4016" x2="37.4536" y2="42.4519" gradientUnits="userSpaceOnUse">
<stop offset="0.0220719" stop-color="#3663D8"/>
<stop offset="0.56" stop-color="#77BEFF"/>
<stop offset="0.99" stop-color="#00D1FF"/>
</linearGradient>
<linearGradient id="paint16_linear_577_7816" x1="39.4157" y1="41.4016" x2="41.1567" y2="42.4519" gradientUnits="userSpaceOnUse">
<stop offset="0.0220719" stop-color="#3663D8"/>
<stop offset="0.56" stop-color="#77BEFF"/>
<stop offset="0.99" stop-color="#00D1FF"/>
</linearGradient>
<linearGradient id="paint17_linear_577_7816" x1="44.9235" y1="41.4016" x2="46.6645" y2="42.4519" gradientUnits="userSpaceOnUse">
<stop offset="0.0220719" stop-color="#3663D8"/>
<stop offset="0.56" stop-color="#77BEFF"/>
<stop offset="0.99" stop-color="#00D1FF"/>
</linearGradient>
<linearGradient id="paint18_linear_577_7816" x1="48.6266" y1="41.4016" x2="50.3677" y2="42.4519" gradientUnits="userSpaceOnUse">
<stop offset="0.0220719" stop-color="#3663D8"/>
<stop offset="0.56" stop-color="#77BEFF"/>
<stop offset="0.99" stop-color="#00D1FF"/>
</linearGradient>
<linearGradient id="paint19_linear_577_7816" x1="39.4157" y1="45.0813" x2="41.1567" y2="46.1316" gradientUnits="userSpaceOnUse">
<stop offset="0.0220719" stop-color="#3663D8"/>
<stop offset="0.56" stop-color="#77BEFF"/>
<stop offset="0.99" stop-color="#00D1FF"/>
</linearGradient>
<linearGradient id="paint20_linear_577_7816" x1="44.9235" y1="45.0813" x2="46.6645" y2="46.1316" gradientUnits="userSpaceOnUse">
<stop offset="0.0220719" stop-color="#3663D8"/>
<stop offset="0.56" stop-color="#77BEFF"/>
<stop offset="0.99" stop-color="#00D1FF"/>
</linearGradient>
<linearGradient id="paint21_linear_577_7816" x1="4.71935" y1="26.1668" x2="19.5924" y2="41.7088" gradientUnits="userSpaceOnUse">
<stop offset="0.0220719" stop-color="#3663D8"/>
<stop offset="0.56" stop-color="#77BEFF"/>
<stop offset="0.99" stop-color="#00D1FF"/>
</linearGradient>
<linearGradient id="paint22_linear_577_7816" x1="23.736" y1="30.3391" x2="25.477" y2="31.3894" gradientUnits="userSpaceOnUse">
<stop offset="0.0220719" stop-color="#3663D8"/>
<stop offset="0.56" stop-color="#77BEFF"/>
<stop offset="0.99" stop-color="#00D1FF"/>
</linearGradient>
<linearGradient id="paint23_linear_577_7816" x1="4.71935" y1="37.2292" x2="19.5924" y2="52.7712" gradientUnits="userSpaceOnUse">
<stop offset="0.0220719" stop-color="#3663D8"/>
<stop offset="0.56" stop-color="#77BEFF"/>
<stop offset="0.99" stop-color="#00D1FF"/>
</linearGradient>
<linearGradient id="paint24_linear_577_7816" x1="23.736" y1="41.4016" x2="25.477" y2="42.4519" gradientUnits="userSpaceOnUse">
<stop offset="0.0220719" stop-color="#3663D8"/>
<stop offset="0.56" stop-color="#77BEFF"/>
<stop offset="0.99" stop-color="#00D1FF"/>
</linearGradient>
<linearGradient id="paint25_linear_577_7816" x1="5.64449" y1="48.283" x2="19.4893" y2="68.4535" gradientUnits="userSpaceOnUse">
<stop offset="0.0220719" stop-color="#3663D8"/>
<stop offset="0.56" stop-color="#77BEFF"/>
<stop offset="0.99" stop-color="#00D1FF"/>
</linearGradient>
<linearGradient id="paint26_linear_577_7816" x1="23.736" y1="52.4641" x2="25.477" y2="53.5144" gradientUnits="userSpaceOnUse">
<stop offset="0.0220719" stop-color="#3663D8"/>
<stop offset="0.56" stop-color="#77BEFF"/>
<stop offset="0.99" stop-color="#00D1FF"/>
</linearGradient>
</defs>
</svg>
